# xmcd
#
# Track frame offsets:
#	150
#	15267
#	27604
#	46988
#	63535
#	79213
#	97308
#	140737
#	151455
#	164821
#	182286
#	191626
#	210345
#	229460
#	251671
#	266521
#	275728
#	283229
#
# Disc length: 3961 seconds
#
# Revision: 0
# Processed by: cddbd v1.5.2PL0 Copyright (c) Steve Scherf et al.
# Submitted via: EasyCDDAExtractor 12.0.0.1
#
DISCID=140f7712
DTITLE=Various Artist - ΛΑΙΚΑ 2009
DYEAR=2009
DGENRE=GREEK
TTITLE0=ΓΙΩΡΓΟΣ ΜΑΡΓΑΡΙΤΗΣ - ΑΝ Μ΄ΑΞΙΩΣΕΙ Ο ΘΕΟΣ
TTITLE1=ΒΑΓΓΕΛΗΣ ΓΕΡΜΑΝΟΣ - ΚΑΜΙΚΑΖΙ
TTITLE2=ΚΩΣΤΑΣ ΜΑΚΕΔΟΝΑΣ - ΒΑΛΕ ΤΡΑΓΟΥΔΙΑ ΛΑΙΚΑ
TTITLE3=ΔΗΜΗΤΡΗΣ ΜΠΑΣΗΣ - ΟΛΟΙ ΟΙ ΔΡΟΜΟΙ ΟΔΗΓΟΥΝ Σ' ΕΣΕΝΑ
TTITLE4=ΟΔΥΣΣΕΑΣ ΝΙΚΟΛΟΠΟΥΛΟΣ - ΕΙΝΑΙ ΜΑΡΤΥΡΙΟ Ν' ΑΓΑΠΑΣ
TTITLE5=ΒΑΣΙΛΗΣ ΣΚΟΥΛΑΣ - Η ΠΙΟ ΜΕΓΑΛΗ ΜΟΝΑΞΙΑ
TTITLE6=ΝΙΚΟΣ ΖΩΙΔΑΚΗΣ - ΜΑΝΤΙΝΑΔΕΣ (ΚΟΝΤΥΛΙΑ)
TTITLE7=ΑΧΙΛΛΕΑΣ ΔΡΑΜΟΥΝΤΑΚΗΣ - ΟΣΟ ΒΑΡΟΥΝ ΤΑ ΣΙΔΕΡΑ (ΑΜΑΝΕΣ)
TTITLE8=ΠΙΤΣΑ ΠΑΠΑΔΟΠΟΥΛΟΥ - Ο ΓΚΡΕΜΟΣ
TTITLE9=ΕΛΕΥΘΕΡΙΑ ΑΡΒΑΝΙΤΑΚΗ - Η ΣΕΡΑΧ
TTITLE10=ΓΙΑΝΝΗΣ ΠΟΥΛΟΠΟΥΛΟΣ - ΤΑ ΜΑΤΟΚΡΑΔΑ ΣΟΥ ΛΑΜΠΟΥΝ
TTITLE11=ΚΑΙΤΗ ΝΤΑΛΗ - Η ΕΝΟΧΗ
TTITLE12=ΣΤΕΛΙΟΣ ΚΑΖΑΤΖΙΔΗΣ - ΚΑΤΕΡΙΝΑ ΣΤΑΝΙΣΗ - ΑΥΤΗ Η ΝΥΧΤΑ ΜΕΝΕΙ
TTITLE13=ΠΟΛΥ ΠΑΝΟΥ - ΤΟ ΔΙΧΤΥ
TTITLE14=ΠΟΛΥ ΠΑΝΟΥ - ΜΑΝΩΛΗΣ ΧΙΩΤΗΣ - ΠΑΝΑΓΙΑ ΜΟΥ, ΚΑΤΙ ΜΑΤΙΑ
TTITLE15=ΧΑΡΟΥΛΑ ΛΑΜΠΡΑΚΗ ΚΑΙ ΤΑ ΠΑΙΔΙΑ ΑΠΟ ΤΗΝ ΠΑΤΡΑ - ΚΑΥΓΑΔΑΚΙ
TTITLE16=ΧΑΡΟΥΛΑ ΛΑΜΠΡΑΚΗ ΚΑΙ ΤΑ ΠΑΙΔΙΑ ΑΠΟ ΤΗΝ ΠΑΤΡΑ - ΔΕΝ ΕΙΜΑΙ Ο ΓΙΩΡΓΟΣ
TTITLE17=ΜΑΡΙΩ, ΚΩΣΤΑΣ ΒΟΜΒΟΛΟΣ, ΧΡΗΣΤΟΣ ΜΗΤΡΕΝΤΖΗΣ,ΔΙΟΝΥΣΗΣ ΡΟΥΣΣΟΣ,ΦΙΛΙΠΠΟΣ 
TTITLE17=ΠΑΠΑΦΙΛΙΠΟΥ - ΜΑΜΠΟ ΜΕ ΤΡΕΛΛΕΣ ΠΕΝΙΕΣ
EXTD=
EXTT0=
EXTT1=
EXTT2=
EXTT3=
EXTT4=
EXTT5=
EXTT6=
EXTT7=
EXTT8=
EXTT9=
EXTT10=
EXTT11=
EXTT12=
EXTT13=
EXTT14=
EXTT15=
EXTT16=
EXTT17=
PLAYORDER=
